<svg viewBox="0 0 256 256" xmlns="http://www.w3.org/2000/svg">
  <style>
    @media (prefers-color-scheme: light) {
      rect { fill: #eff1f5; }
      path { fill: #dd7878; }
    }
  </style>
  <rect fill="#1e1e2e" width="256" height="256"/>
  <path fill="#f2cdcd" d="M89.2 71a9 9 0 1 0 0 18 75 75 0 0 1 75 75 9 9 0 1 0 18 0 93 93 0 0 0-93-93Z"/><path fill="#F2CDCD" d="M89.2 107a9 9 0 1 0 0 18 39 39 0 0 1 39 39 9 9 0 1 0 18 0 57 57 0 0 0-57-57ZM83.7 152.5a12 12 0 1 0 17 17 12 12 0 0 0-17-17Z"/>
</svg>