<svg viewBox="0 0 256 256" xmlns="http://www.w3.org/2000/svg">
  <style>
    @media (prefers-color-scheme: light) {
      rect { fill: #eff1f5; }
      path { fill: #dd7878; }
    }
  </style>
  <rect fill="#1e1e2e" width="256" height="256" rx="57"/>
  <path fill="#f2cdcd" d="M71 47a13.2 13.2 0 1 0 0 26.5c60.9 0 110.2 49.3 110.2 110.3a13.2 13.2 0 1 0 26.5 0C207.7 108.2 146.5 47 70.9 47Z"/><path fill="#F2CDCD" d="M71 100a13.2 13.2 0 1 0 0 26.4 57.4 57.4 0 0 1 57.3 57.4 13.2 13.2 0 1 0 26.4 0A83.9 83.9 0 0 0 71 99.9ZM62.9 166.9a17.6 17.6 0 1 0 25 25 17.6 17.6 0 0 0-25-25Z"/>
</svg>